<svg width="199" height="229" viewBox="0 0 199 229" fill="none" xmlns="http://www.w3.org/2000/svg">
<path d="M156.437 49.5906C153.457 51.2285 150.103 52.0618 146.703 52.0082C143.303 51.9547 139.977 51.0162 137.05 49.2852C134.124 47.5543 131.699 45.0906 130.015 42.1371C128.33 39.1836 127.445 35.8422 127.445 32.4422L127.439 16.698L99.6455 0.647949L99.4991 0.734413L99.3527 0.647949L71.5595 16.698V32.4422C71.5613 35.8427 70.6766 39.185 68.9927 42.1393C67.3088 45.0936 64.8839 47.5579 61.957 49.2891C59.0302 51.0203 55.7026 51.9586 52.3025 52.0115C48.9024 52.0644 45.5472 51.23 42.568 49.5906L28.5616 41.5024L0.761719 57.5524V89.6593C0.761719 89.6593 7.77823 93.7134 14.7681 97.7411C17.6746 99.5046 20.0716 101.995 21.7231 104.966C23.3746 107.938 24.2237 111.288 24.1867 114.688C24.1498 118.087 23.2281 121.418 21.5124 124.353C19.7966 127.288 17.3461 129.726 14.402 131.426L0.761719 139.294V171.388L0.768376 171.394V171.434L28.5616 187.478L42.1885 179.609C45.1646 177.892 48.5403 176.987 51.9766 176.987C55.4128 176.987 58.7887 177.891 61.7649 179.608C64.7412 181.326 67.2131 183.796 68.9324 186.772C70.6516 189.747 71.5576 193.122 71.5595 196.558V212.302L99.3527 228.352L99.4991 228.266L99.6455 228.352L127.439 212.302L127.445 196.558C127.446 193.122 128.351 189.747 130.07 186.772C131.788 183.796 134.26 181.326 137.235 179.608C140.211 177.891 143.587 176.986 147.023 176.987C150.459 176.987 153.834 177.891 156.81 179.61L170.437 187.478L198.23 171.434V171.395L198.236 171.388V139.294L184.603 131.426C181.657 129.727 179.204 127.29 177.487 124.354C175.77 121.419 174.848 118.086 174.811 114.686C174.775 111.285 175.626 107.934 177.28 104.963C178.934 101.991 181.334 99.5021 184.243 97.7411L198.236 89.6593V57.5524L170.437 41.5024L156.437 49.5906ZM156.284 131.419L142.65 139.294V139.334H142.643V155.078C142.644 158.515 141.74 161.891 140.022 164.867C138.304 167.844 135.833 170.315 132.856 172.034C129.88 173.752 126.504 174.657 123.068 174.657C119.631 174.657 116.255 173.752 113.279 172.034L99.6455 164.165L99.4991 164.245L99.3527 164.165L85.719 172.034C82.743 173.752 79.3669 174.657 75.9303 174.657C72.4937 174.657 69.1176 173.752 66.1415 172.034C63.1654 170.316 60.6941 167.844 58.9761 164.867C57.2582 161.891 56.3541 158.515 56.3548 155.078V139.294L42.7211 131.419C39.783 129.724 37.3361 127.294 35.6208 124.367C33.9054 121.441 32.9805 118.118 32.9369 114.726C32.8932 111.334 33.7323 107.99 35.3718 105.02C37.0113 102.05 39.3948 99.5579 42.2884 97.7876L56.3548 89.6593V73.922C56.3544 70.4855 57.2586 67.1094 58.9767 64.1332C60.6947 61.1569 63.1659 58.6854 66.1419 56.967C69.118 55.2486 72.4939 54.3439 75.9304 54.3438C79.3669 54.3438 82.7429 55.2484 85.719 56.9667L99.3527 64.8352L99.4991 64.7552L99.6455 64.8352L113.279 56.9667C116.255 55.2481 119.631 54.3432 123.068 54.3431C126.505 54.3431 129.881 55.2477 132.857 56.9662C135.833 58.6846 138.304 61.1563 140.022 64.1327C141.74 67.1091 142.644 70.4854 142.643 73.922V89.6593L156.71 97.7876C159.605 99.5567 161.989 102.048 163.63 105.018C165.271 107.987 166.111 111.332 166.068 114.725C166.025 118.117 165.1 121.44 163.385 124.367C161.67 127.293 159.222 129.724 156.284 131.419Z" fill="#B4FC75"/>
</svg>
